<?xml version="1.0" encoding="iso-8859-1"?>
<!-- Generator: Adobe Illustrator 19.0.0, SVG Export Plug-In . SVG Version: 6.00 Build 0)  -->
<svg version="1.1" id="Capa_1" xmlns="http://www.w3.org/2000/svg" xmlns:xlink="http://www.w3.org/1999/xlink" x="0px" y="0px"
	 viewBox="0 0 490.4 490.4" style="enable-background:new 0 0 490.4 490.4;" xml:space="preserve">
<g>
	<g>
		<path d="M469.6,0.55H20.8C9.3,0.55,0,9.95,0,21.35v447.7c0,11.5,9.4,20.8,20.8,20.8h447.7c11.5,0,20.8-9.4,21.9-19.8V21.45
			C490.4,9.95,481,0.55,469.6,0.55z M420.5,41.15L40.6,420.25v-379h379.9V41.15z M68.9,449.35l379.8-378.1v378.1H68.9z"/>
		<path d="M104.1,171.35H128v22.9c0,11.5,9.4,20.8,20.8,20.8c11.5,0,20.8-8.3,20.8-20.8v-22.9h22.9c11.5,0,20.8-9.4,20.8-20.8
			s-9.4-20.8-20.8-20.8h-22.9v-23.9c0-11.5-9.4-20.8-20.8-20.8c-11.5,0-20.8,9.4-20.8,20.8v23.9h-23.9c-11.5,0-20.8,9.4-20.8,20.8
			S92.7,171.35,104.1,171.35z"/>
		<path d="M375.9,327.45h-88.5c-11.5,0-20.8,9.4-20.8,20.8s9.4,20.8,20.8,20.8h88.5c11.5,0,19.8-9.4,20.8-20.8
			C396.7,336.85,387.3,327.45,375.9,327.45z"/>
	</g>
</g>
<g>
</g>
<g>
</g>
<g>
</g>
<g>
</g>
<g>
</g>
<g>
</g>
<g>
</g>
<g>
</g>
<g>
</g>
<g>
</g>
<g>
</g>
<g>
</g>
<g>
</g>
<g>
</g>
<g>
</g>
</svg>
