<svg width="21" height="21" viewBox="0 0 21 21" fill="none" xmlns="http://www.w3.org/2000/svg">
<path fill-rule="evenodd" clip-rule="evenodd" d="M7.00162 12.2912L0.157961 1.53688C-0.265682 0.87115 0.212532 0 1.00162 0H19.0016C19.7907 0 20.2689 0.87115 19.8453 1.53688L13.0016 12.2912V17C13.0016 17.3788 12.7876 17.725 12.4488 17.8944L8.44884 19.8944C7.78394 20.2269 7.00162 19.7434 7.00162 19V12.2912ZM2.8233 2L8.84528 11.4631C8.94739 11.6236 9.00162 11.8098 9.00162 12V17.382L11.0016 16.382V12C11.0016 11.8098 11.0559 11.6236 11.158 11.4631L17.18 2H2.8233Z" fill="#321946"/>
</svg>
