<?xml version="1.0" encoding="iso-8859-1"?>
<!-- Generator: Adobe Illustrator 19.0.0, SVG Export Plug-In . SVG Version: 6.00 Build 0)  -->
<svg version="1.1" id="Layer_1" xmlns="http://www.w3.org/2000/svg" xmlns:xlink="http://www.w3.org/1999/xlink" x="0px" y="0px"
	 viewBox="0 0 512.043 512.043" style="enable-background:new 0 0 512.043 512.043;" xml:space="preserve">
<g transform="translate(-1 -1)">
	<g>
		<g>
			<path d="M194.61,14.291l-192,469.333c-5.742,14.035,4.581,29.411,19.745,29.411h192c11.782,0,21.333-9.551,21.333-21.333V22.368
				C235.688-1.028,203.468-7.364,194.61,14.291z M193.022,470.368H54.132l138.89-339.509V470.368z"/>
			<path d="M511.433,483.624l-192-469.333c-8.858-21.654-41.078-15.318-41.078,8.077v469.333c0,11.782,9.551,21.333,21.333,21.333
				h192C506.852,513.035,517.175,497.659,511.433,483.624z M321.022,470.368V130.859l138.89,339.509H321.022z"/>
		</g>
	</g>
</g>
<g>
</g>
<g>
</g>
<g>
</g>
<g>
</g>
<g>
</g>
<g>
</g>
<g>
</g>
<g>
</g>
<g>
</g>
<g>
</g>
<g>
</g>
<g>
</g>
<g>
</g>
<g>
</g>
<g>
</g>
</svg>
